# Blender 4.3.0
# www.blender.org
mtllib DeadEyes_01.mtl
o Back.001
v -0.112500 -0.112500 0.000000
v 0.112500 0.112500 -0.000000
v 0.112500 -0.112500 0.000000
v -0.112500 0.112500 -0.000000
vn -0.0000 -0.0000 -1.0000
vt 0.000000 0.000000
vt 1.000000 1.000000
vt 1.000000 0.000000
vt 0.000000 1.000000
s 1
usemtl DeadEyes_01
f 1/1/1 2/2/1 3/3/1
f 4/4/1 2/2/1 1/1/1
o Font.001
v -0.112500 -0.112500 0.000000
v 0.112500 -0.112500 0.000000
v 0.112500 0.112500 -0.000000
v -0.112500 0.112500 -0.000000
vn -0.0000 -0.0000 1.0000
vt 0.000000 0.000000
vt 1.000000 0.000000
vt 1.000000 1.000000
vt 0.000000 1.000000
s 1
usemtl DeadEyes_01
f 5/5/2 6/6/2 7/7/2
f 8/8/2 5/5/2 7/7/2
