# Blender 4.4.0
# www.blender.org
mtllib eye2.mtl
o Back
v -0.050000 -0.050000 -0.000000
v 0.050000 -0.050000 0.000000
v -0.050000 0.050000 -0.000000
v 0.050000 0.050000 0.000000
vn -0.0000 -0.0000 -1.0000
vt 0.000000 0.000000
vt 1.000000 0.000000
vt 1.000000 1.000000
vt 0.000000 1.000000
s 0
usemtl eye2
f 1/1/1 4/3/1 2/2/1
f 3/4/1 4/3/1 1/1/1
o Font
v -0.050000 -0.050000 0.000000
v 0.050000 -0.050000 -0.000000
v -0.050000 0.050000 0.000000
v 0.050000 0.050000 -0.000000
vn -0.0000 -0.0000 1.0000
vt 0.000000 0.000000
vt 1.000000 0.000000
vt 1.000000 1.000000
vt 0.000000 1.000000
s 0
usemtl eye2
f 5/5/2 6/6/2 8/7/2
f 7/8/2 5/5/2 8/7/2
