# Blender v2.93.5 OBJ File: ''
# www.blender.org
mtllib eye4.mtl
o Back
v -0.112500 -0.112500 -0.000000
v 0.112500 0.112500 0.000000
v 0.112500 -0.112500 -0.000000
v -0.112500 0.112500 0.000000
vt 0.000000 0.000000
vt 1.000000 1.000000
vt 1.000000 0.000000
vt 0.000000 1.000000
vn 0.0000 0.0000 -1.0000
usemtl eye1
s 1
f 1/1/1 2/2/1 3/3/1
f 4/4/1 2/2/1 1/1/1
o Font
v -0.112500 -0.112500 -0.000000
v 0.112500 -0.112500 -0.000000
v 0.112500 0.112500 0.000000
v -0.112500 0.112500 0.000000
vt 0.000000 0.000000
vt 1.000000 0.000000
vt 1.000000 1.000000
vt 0.000000 1.000000
vn 0.0000 -0.0000 1.0000
usemtl eye1
s 1
f 5/5/2 6/6/2 7/7/2
f 8/8/2 5/5/2 7/7/2
