# Blender v2.93.5 OBJ File: ''
# www.blender.org
mtllib snoz3.mtl
o Cube_Cube.001
v 0.000000 -0.044691 0.088085
v 0.052027 0.075059 -0.002983
v -0.052027 0.075059 -0.002983
v -0.005277 -0.075059 -0.002983
v 0.005277 -0.075059 -0.002983
vt 0.375000 0.750000
vt 0.375000 0.500000
vt 0.607307 0.732307
vt 0.125000 0.500000
vt 0.125000 0.750000
vt 0.375000 1.000000
vt 0.589615 0.964615
vn -0.9436 -0.2939 0.1527
vn 0.0000 0.6053 0.7960
vn 0.9436 -0.2939 0.1527
vn 0.0000 -0.9486 0.3163
usemtl None
s off
f 1/1/1 3/2/1 4/3/1
f 2/4/2 3/2/2 1/5/2
f 2/4/3 1/6/3 5/7/3
f 5/7/4 1/1/4 4/3/4
