# Blender 4.4.3
# www.blender.org
o Sphere.001
v -0.250000 0.433013 -0.000000
v -0.230970 0.400052 0.191342
v -0.176777 0.306186 0.353553
v -0.095671 0.165707 0.461940
v -0.433013 0.250000 -0.000000
v -0.400052 0.230970 0.191342
v -0.306186 0.176777 0.353553
v -0.165707 0.095671 0.461940
v -0.500000 0.000000 0.000000
v -0.461940 -0.000000 0.191342
v -0.353553 0.000000 0.353553
v -0.191342 0.000000 0.461940
v -0.433013 -0.250000 0.000000
v -0.400052 -0.230970 0.191342
v -0.306186 -0.176777 0.353553
v -0.165707 -0.095671 0.461940
v -0.250000 -0.433013 0.000000
v -0.230970 -0.400052 0.191342
v -0.176777 -0.306186 0.353553
v -0.095671 -0.165707 0.461940
v 0.000000 -0.500000 0.000000
v 0.000000 -0.461940 0.191342
v 0.000000 -0.353553 0.353553
v 0.000000 -0.191342 0.461940
v 0.250000 -0.433013 0.000000
v 0.230970 -0.400052 0.191342
v 0.176777 -0.306186 0.353553
v 0.095671 -0.165707 0.461940
v 0.433013 -0.250000 0.000000
v 0.400052 -0.230970 0.191342
v 0.306186 -0.176777 0.353553
v 0.165707 -0.095671 0.461940
v 0.000000 0.000000 0.500000
v 0.500000 0.000000 0.000000
v 0.461940 -0.000000 0.191342
v 0.353553 0.000000 0.353553
v 0.191342 0.000000 0.461940
v 0.433013 0.250000 -0.000000
v 0.400052 0.230970 0.191342
v 0.306186 0.176777 0.353553
v 0.165707 0.095671 0.461940
v 0.250000 0.433013 -0.000000
v 0.230970 0.400052 0.191342
v 0.176777 0.306186 0.353553
v 0.095671 0.165707 0.461940
v 0.000000 0.500000 -0.000000
v 0.000000 0.461940 0.191342
v -0.000000 0.353553 0.353553
v 0.000000 0.191342 0.461940
vn 0.4904 -0.8494 -0.1951
vn 0.4642 -0.8040 -0.3718
vn 0.3613 -0.6258 -0.6913
vn 0.2049 -0.3548 -0.9122
vn 0.8494 -0.4904 -0.1951
vn 0.8040 -0.4642 -0.3718
vn 0.6258 -0.3613 -0.6913
vn 0.3548 -0.2049 -0.9122
vn 0.9808 -0.0000 -0.1951
vn 0.9283 -0.0000 -0.3718
vn 0.7226 -0.0000 -0.6913
vn 0.4097 -0.0000 -0.9122
vn 0.8494 0.4904 -0.1951
vn 0.8040 0.4642 -0.3718
vn 0.6258 0.3613 -0.6913
vn 0.3548 0.2049 -0.9122
vn 0.4904 0.8494 -0.1951
vn 0.4642 0.8040 -0.3718
vn 0.3613 0.6258 -0.6913
vn 0.2049 0.3548 -0.9122
vn -0.0000 0.9808 -0.1951
vn -0.0000 0.9283 -0.3718
vn -0.0000 0.7226 -0.6913
vn -0.0000 0.4097 -0.9122
vn -0.4904 0.8494 -0.1951
vn -0.4642 0.8040 -0.3718
vn -0.3613 0.6258 -0.6913
vn -0.2049 0.3548 -0.9122
vn -0.8494 0.4904 -0.1951
vn -0.8040 0.4642 -0.3718
vn -0.6258 0.3613 -0.6913
vn -0.3548 0.2049 -0.9122
vn -0.0000 -0.0000 -1.0000
vn -0.9808 -0.0000 -0.1951
vn -0.9283 -0.0000 -0.3718
vn -0.7226 -0.0000 -0.6913
vn -0.4097 -0.0000 -0.9122
vn -0.8494 -0.4904 -0.1951
vn -0.8040 -0.4642 -0.3718
vn -0.6258 -0.3613 -0.6913
vn -0.3548 -0.2049 -0.9122
vn -0.4904 -0.8494 -0.1951
vn -0.4642 -0.8040 -0.3718
vn -0.3613 -0.6258 -0.6913
vn -0.2049 -0.3548 -0.9122
vn -0.0000 -0.9808 -0.1951
vn -0.0000 -0.9283 -0.3718
vn -0.0000 -0.7226 -0.6913
vn -0.0000 -0.4097 -0.9122
vt 0.750000 0.375000
vt 0.666667 0.375000
vt 0.666667 0.500000
vt 0.750000 0.500000
vt 0.666667 0.000000
vt 0.666667 0.125000
vt 0.750000 0.125000
vt 0.750000 0.250000
vt 0.666667 0.250000
vt 0.583333 0.000000
vt 0.583333 0.125000
vt 0.583333 0.250000
vt 0.583333 0.375000
vt 0.583333 0.500000
vt 0.500000 0.125000
vt 0.500000 0.250000
vt 0.500000 0.375000
vt 0.500000 0.500000
vt 0.500000 0.000000
vt 0.416667 0.125000
vt 0.416667 0.250000
vt 0.416667 0.375000
vt 0.416667 0.500000
vt 0.416667 0.000000
vt 0.333333 0.000000
vt 0.333333 0.125000
vt 0.333333 0.250000
vt 0.333333 0.375000
vt 0.333333 0.500000
vt 0.250000 0.250000
vt 0.250000 0.375000
vt 0.250000 0.125000
vt 0.250000 0.500000
vt 0.250000 0.000000
vt 0.166667 0.125000
vt 0.166667 0.250000
vt 0.166667 0.375000
vt 0.166667 0.500000
vt 0.166667 0.000000
vt 0.083333 0.375000
vt 0.083333 0.500000
vt 0.083333 0.000000
vt 0.083333 0.125000
vt 0.083333 0.250000
vt 0.000000 0.000000
vt 0.000000 0.125000
vt 0.000000 0.250000
vt 0.000000 0.375000
vt 0.000000 0.500000
vt 1.000000 0.125000
vt 0.916667 0.125000
vt 0.916667 0.250000
vt 1.000000 0.250000
vt 1.000000 0.375000
vt 0.916667 0.375000
vt 0.916667 0.500000
vt 1.000000 0.500000
vt 0.916667 0.000000
vt 0.833333 0.125000
vt 0.833333 0.250000
vt 0.833333 0.375000
vt 0.833333 0.500000
vt 0.833333 0.000000
vt 0.750000 0.000000
s 1
f 47/1/47 2/2/2 1/3/1 46/4/46
f 33/5/33 4/6/4 49/7/49
f 48/8/48 3/9/3 2/2/2 47/1/47
f 49/7/49 4/6/4 3/9/3 48/8/48
f 33/10/33 8/11/8 4/6/4
f 3/9/3 7/12/7 6/13/6 2/2/2
f 4/6/4 8/11/8 7/12/7 3/9/3
f 2/2/2 6/13/6 5/14/5 1/3/1
f 8/11/8 12/15/12 11/16/11 7/12/7
f 6/13/6 10/17/10 9/18/9 5/14/5
f 33/19/33 12/15/12 8/11/8
f 7/12/7 11/16/11 10/17/10 6/13/6
f 12/15/12 16/20/16 15/21/15 11/16/11
f 10/17/10 14/22/14 13/23/13 9/18/9
f 33/24/33 16/20/16 12/15/12
f 11/16/11 15/21/15 14/22/14 10/17/10
f 33/25/33 20/26/20 16/20/16
f 15/21/15 19/27/19 18/28/18 14/22/14
f 16/20/16 20/26/20 19/27/19 15/21/15
f 14/22/14 18/28/18 17/29/17 13/23/13
f 19/27/19 23/30/23 22/31/22 18/28/18
f 20/26/20 24/32/24 23/30/23 19/27/19
f 18/28/18 22/31/22 21/33/21 17/29/17
f 33/34/33 24/32/24 20/26/20
f 24/32/24 28/35/28 27/36/27 23/30/23
f 22/31/22 26/37/26 25/38/25 21/33/21
f 33/39/33 28/35/28 24/32/24
f 23/30/23 27/36/27 26/37/26 22/31/22
f 26/37/26 30/40/30 29/41/29 25/38/25
f 33/42/33 32/43/32 28/35/28
f 27/36/27 31/44/31 30/40/30 26/37/26
f 28/35/28 32/43/32 31/44/31 27/36/27
f 33/45/33 37/46/37 32/43/32
f 31/44/31 36/47/36 35/48/35 30/40/30
f 32/43/32 37/46/37 36/47/36 31/44/31
f 30/40/30 35/48/35 34/49/34 29/41/29
f 37/50/37 41/51/41 40/52/40 36/53/36
f 35/54/35 39/55/39 38/56/38 34/57/34
f 33/58/33 41/51/41 37/50/37
f 36/53/36 40/52/40 39/55/39 35/54/35
f 41/51/41 45/59/45 44/60/44 40/52/40
f 39/55/39 43/61/43 42/62/42 38/56/38
f 33/63/33 45/59/45 41/51/41
f 40/52/40 44/60/44 43/61/43 39/55/39
f 33/64/33 49/7/49 45/59/45
f 44/60/44 48/8/48 47/1/47 43/61/43
f 45/59/45 49/7/49 48/8/48 44/60/44
f 43/61/43 47/1/47 46/4/46 42/62/42
